<?xml version="1.0" encoding="UTF-8" standalone="no"?>
<!-- Created with Inkscape (http://www.inkscape.org/) -->
<svg
   xmlns:dc="http://purl.org/dc/elements/1.1/"
   xmlns:cc="http://web.resource.org/cc/"
   xmlns:rdf="http://www.w3.org/1999/02/22-rdf-syntax-ns#"
   xmlns:svg="http://www.w3.org/2000/svg"
   xmlns="http://www.w3.org/2000/svg"
   xmlns:xlink="http://www.w3.org/1999/xlink"
   xmlns:sodipodi="http://sodipodi.sourceforge.net/DTD/sodipodi-0.dtd"
   xmlns:inkscape="http://www.inkscape.org/namespaces/inkscape"
   width="744.09448819"
   height="1052.3622047"
   id="svg2"
   sodipodi:version="0.32"
   inkscape:version="0.45.1"
   sodipodi:docbase="C:\Users\Michael McCouman\Desktop"
   sodipodi:docname="wdpodcaster-icon.svg"
   inkscape:output_extension="org.inkscape.output.svg.inkscape">
  <defs
     id="defs4">
    <linearGradient
       inkscape:collect="always"
       id="linearGradient4363">
      <stop
         style="stop-color:#1a1a1a;stop-opacity:1;"
         offset="0"
         id="stop4365" />
      <stop
         style="stop-color:#1a1a1a;stop-opacity:0;"
         offset="1"
         id="stop4367" />
    </linearGradient>
    <linearGradient
       inkscape:collect="always"
       id="linearGradient3937">
      <stop
         style="stop-color:#1a1a1a;stop-opacity:1;"
         offset="0"
         id="stop3939" />
      <stop
         style="stop-color:#1a1a1a;stop-opacity:0;"
         offset="1"
         id="stop3941" />
    </linearGradient>
    <linearGradient
       inkscape:collect="always"
       id="linearGradient3789">
      <stop
         style="stop-color:#1f4053;stop-opacity:1;"
         offset="0"
         id="stop3791" />
      <stop
         style="stop-color:#010a10;stop-opacity:0.98823529"
         offset="1"
         id="stop3793" />
    </linearGradient>
    <linearGradient
       inkscape:collect="always"
       id="linearGradient3771">
      <stop
         style="stop-color:#1f4053;stop-opacity:1;"
         offset="0"
         id="stop3773" />
      <stop
         style="stop-color:#dedfce;stop-opacity:0.97787613"
         offset="1"
         id="stop3775" />
    </linearGradient>
    <linearGradient
       inkscape:collect="always"
       id="linearGradient3706">
      <stop
         style="stop-color:#f4f8f4;stop-opacity:0.33628318"
         offset="0"
         id="stop3708" />
      <stop
         style="stop-color:#f4f5f5;stop-opacity:0.78318584"
         offset="1"
         id="stop3710" />
    </linearGradient>
    <linearGradient
       inkscape:collect="always"
       id="linearGradient3536">
      <stop
         style="stop-color:#0da1a8;stop-opacity:1"
         offset="0"
         id="stop3538" />
      <stop
         style="stop-color:#0d3574;stop-opacity:0.97345132"
         offset="1"
         id="stop3540" />
    </linearGradient>
    <linearGradient
       inkscape:collect="always"
       id="linearGradient3356">
      <stop
         style="stop-color:#040103;stop-opacity:1;"
         offset="0"
         id="stop3358" />
      <stop
         style="stop-color:#f2f4f6;stop-opacity:1"
         offset="1"
         id="stop3360" />
    </linearGradient>
    <linearGradient
       inkscape:collect="always"
       id="linearGradient3344">
      <stop
         style="stop-color:#010301;stop-opacity:1"
         offset="0"
         id="stop3346" />
      <stop
         style="stop-color:#9b9794;stop-opacity:0.99557525"
         offset="1"
         id="stop3348" />
    </linearGradient>
    <linearGradient
       inkscape:collect="always"
       id="linearGradient3196">
      <stop
         style="stop-color:#137c94;stop-opacity:0.98039216"
         offset="0"
         id="stop3198" />
      <stop
         style="stop-color:#0d1d4d;stop-opacity:0"
         offset="1"
         id="stop3200" />
    </linearGradient>
    <linearGradient
       inkscape:collect="always"
       id="linearGradient3167">
      <stop
         style="stop-color:#f8f5e7;stop-opacity:1"
         offset="0"
         id="stop3169" />
      <stop
         style="stop-color:#000000;stop-opacity:0;"
         offset="1"
         id="stop3171" />
    </linearGradient>
    <radialGradient
       inkscape:collect="always"
       xlink:href="#linearGradient3167"
       id="radialGradient3186"
       gradientUnits="userSpaceOnUse"
       gradientTransform="matrix(2.5762361,3.6377959e-2,-1.5392986e-2,1.0901097,-105.35801,-80.857836)"
       cx="45.686745"
       cy="419.681"
       fx="45.686745"
       fy="419.681"
       r="283.97507" />
    <radialGradient
       inkscape:collect="always"
       xlink:href="#linearGradient3167"
       id="radialGradient3188"
       gradientUnits="userSpaceOnUse"
       gradientTransform="matrix(2.5708497,-0.1704338,6.3425778e-2,0.9567241,-138.44831,16.626566)"
       cx="192.12692"
       cy="432.95743"
       fx="192.12692"
       fy="432.95743"
       r="283.97507" />
    <radialGradient
       inkscape:collect="always"
       xlink:href="#linearGradient3196"
       id="radialGradient3202"
       cx="22.753817"
       cy="874.86346"
       fx="22.753817"
       fy="874.86346"
       r="61.037681"
       gradientTransform="matrix(13.734933,-2.9601989e-2,6.364095e-3,2.6367705,-302.02829,-1386.1147)"
       gradientUnits="userSpaceOnUse" />
    <filter
       inkscape:collect="always"
       x="-0.21655058"
       width="1.4331012"
       y="-0.094690579"
       height="1.1893812"
       id="filter3256">
      <feGaussianBlur
         inkscape:collect="always"
         stdDeviation="11.014788"
         id="feGaussianBlur3258" />
    </filter>
    <filter
       inkscape:collect="always"
       x="-0.19468973"
       width="1.3893795"
       y="-0.13580273"
       height="1.2716055"
       id="filter3338">
      <feGaussianBlur
         inkscape:collect="always"
         stdDeviation="7.9004426"
         id="feGaussianBlur3340" />
    </filter>
    <linearGradient
       inkscape:collect="always"
       xlink:href="#linearGradient3344"
       id="linearGradient3350"
       x1="47.198048"
       y1="797.16254"
       x2="121.85379"
       y2="783.68372"
       gradientUnits="userSpaceOnUse" />
    <linearGradient
       inkscape:collect="always"
       xlink:href="#linearGradient3356"
       id="linearGradient3362"
       x1="67.064651"
       y1="770.86005"
       x2="162.35652"
       y2="766.14069"
       gradientUnits="userSpaceOnUse" />
    <filter
       inkscape:collect="always"
       x="-0.24944862"
       width="1.4988972"
       y="-0.037953111"
       height="1.0759062"
       id="filter3464">
      <feGaussianBlur
         inkscape:collect="always"
         stdDeviation="4.7950675"
         id="feGaussianBlur3466" />
    </filter>
    <filter
       inkscape:collect="always"
       x="-0.2144591"
       width="1.4289182"
       y="-0.22832826"
       height="1.4566565"
       id="filter3692">
      <feGaussianBlur
         inkscape:collect="always"
         stdDeviation="9.0324594"
         id="feGaussianBlur3694" />
    </filter>
    <filter
       inkscape:collect="always"
       id="filter3700">
      <feGaussianBlur
         inkscape:collect="always"
         stdDeviation="1.8604638"
         id="feGaussianBlur3702" />
    </filter>
    <filter
       inkscape:collect="always"
       x="-0.077954809"
       width="1.1559096"
       y="-0.10481657"
       height="1.2096331"
       id="filter3750">
      <feGaussianBlur
         inkscape:collect="always"
         stdDeviation="1.9867374"
         id="feGaussianBlur3752" />
    </filter>
    <radialGradient
       inkscape:collect="always"
       xlink:href="#linearGradient3536"
       id="radialGradient3761"
       gradientUnits="userSpaceOnUse"
       gradientTransform="matrix(1.4156156,0.8600985,-1.7716044,2.5274623,1024.7426,-1866.9341)"
       cx="908.48553"
       cy="570.48547"
       fx="908.48553"
       fy="570.48547"
       r="58.305363" />
    <linearGradient
       inkscape:collect="always"
       xlink:href="#linearGradient3706"
       id="linearGradient3763"
       gradientUnits="userSpaceOnUse"
       gradientTransform="matrix(1.1599227,0,0,1.0799148,248.84565,-274.32886)"
       x1="941.30705"
       y1="474.4421"
       x2="1039.9694"
       y2="489.35617" />
    <linearGradient
       inkscape:collect="always"
       xlink:href="#linearGradient3771"
       id="linearGradient3777"
       x1="523.64825"
       y1="788.33167"
       x2="673.68237"
       y2="847.16852"
       gradientUnits="userSpaceOnUse"
       gradientTransform="matrix(1.1599227,0,0,1.0799148,-85.864702,-50.646527)" />
    <linearGradient
       inkscape:collect="always"
       xlink:href="#linearGradient3789"
       id="linearGradient3795"
       x1="357.36502"
       y1="756.95483"
       x2="357.36502"
       y2="1162.3561"
       gradientUnits="userSpaceOnUse" />
    <linearGradient
       inkscape:collect="always"
       xlink:href="#linearGradient3937"
       id="linearGradient3943"
       x1="60.207966"
       y1="1280.7983"
       x2="27.68264"
       y2="875.27991"
       gradientUnits="userSpaceOnUse"
       gradientTransform="matrix(0.9852942,0,0,1,-73.316943,131.04087)" />
    <linearGradient
       inkscape:collect="always"
       xlink:href="#linearGradient3937"
       id="linearGradient3947"
       gradientUnits="userSpaceOnUse"
       x1="60.207966"
       y1="1280.7983"
       x2="47.197845"
       y2="960.27936"
       gradientTransform="matrix(0.9852942,0,0,1,-698.31308,173.54061)" />
    <filter
       inkscape:collect="always"
       x="-0.18468815"
       width="1.3693763"
       y="-0.41041812"
       height="1.8208362"
       id="filter4073">
      <feGaussianBlur
         inkscape:collect="always"
         stdDeviation="16.352499"
         id="feGaussianBlur4075" />
    </filter>
    <filter
       inkscape:collect="always"
       x="-0.10223808"
       width="1.2044762"
       y="-0.22719574"
       height="1.4543915"
       id="filter4157">
      <feGaussianBlur
         inkscape:collect="always"
         stdDeviation="9.052276"
         id="feGaussianBlur4159" />
    </filter>
    <filter
       inkscape:collect="always"
       x="-0.081718915"
       width="1.1634378"
       y="-0.41354724"
       height="1.8270945"
       id="filter4359">
      <feGaussianBlur
         inkscape:collect="always"
         stdDeviation="20.138768"
         id="feGaussianBlur4361" />
    </filter>
    <linearGradient
       inkscape:collect="always"
       xlink:href="#linearGradient4363"
       id="linearGradient4369"
       x1="205.41537"
       y1="908.92554"
       x2="619.7879"
       y2="1086.0078"
       gradientUnits="userSpaceOnUse"
       gradientTransform="matrix(0.9852942,0,0,1,-84.426569,131.04087)" />
    <linearGradient
       inkscape:collect="always"
       xlink:href="#linearGradient3789"
       id="linearGradient2769"
       gradientUnits="userSpaceOnUse"
       x1="357.36502"
       y1="756.95483"
       x2="357.36502"
       y2="1162.3561" />
    <linearGradient
       inkscape:collect="always"
       xlink:href="#linearGradient3356"
       id="linearGradient2772"
       gradientUnits="userSpaceOnUse"
       x1="67.064651"
       y1="770.86005"
       x2="162.35652"
       y2="766.14069" />
    <linearGradient
       inkscape:collect="always"
       xlink:href="#linearGradient3344"
       id="linearGradient2778"
       gradientUnits="userSpaceOnUse"
       x1="47.198048"
       y1="797.16254"
       x2="121.85379"
       y2="783.68372" />
  </defs>
  <sodipodi:namedview
     id="base"
     pagecolor="#ffffff"
     bordercolor="#666666"
     borderopacity="1.0"
     gridtolerance="10000"
     guidetolerance="10"
     objecttolerance="10"
     inkscape:pageopacity="0.0"
     inkscape:pageshadow="2"
     inkscape:zoom="0.28235467"
     inkscape:cx="413.33833"
     inkscape:cy="275.86072"
     inkscape:document-units="px"
     inkscape:current-layer="layer1"
     inkscape:window-width="761"
     inkscape:window-height="573"
     inkscape:window-x="13"
     inkscape:window-y="24" />
  <metadata
     id="metadata7">
    <rdf:RDF>
      <cc:Work
         rdf:about="">
        <dc:format>image/svg+xml</dc:format>
        <dc:type
           rdf:resource="http://purl.org/dc/dcmitype/StillImage" />
      </cc:Work>
    </rdf:RDF>
  </metadata>
  <g
     inkscape:label="Layer 1"
     inkscape:groupmode="layer"
     id="layer1">
    <rect
       style="opacity:1;fill:#1a1a1a;fill-opacity:0;fill-rule:nonzero;stroke:none;stroke-opacity:1"
       id="rect4526"
       width="789.7868"
       height="818.11993"
       x="-74.374535"
       y="276.74194"
       inkscape:export-filename="C:\Users\Michael McCouman\Desktop\wDP.png"
       inkscape:export-xdpi="90"
       inkscape:export-ydpi="90" />
    <g
       id="g3181"
       transform="translate(29.269511,46.486863)"
       inkscape:export-filename="C:\Users\Michael McCouman\Desktop\wDP.png"
       inkscape:export-xdpi="90"
       inkscape:export-ydpi="90">
      <path
         sodipodi:nodetypes="czcczcc"
         style="fill:#000000;fill-opacity:1;fill-rule:evenodd;stroke:#000000;stroke-width:1px;stroke-linecap:butt;stroke-linejoin:miter;stroke-opacity:1"
         d="M 18.939091,604.71091 C 18.939091,604.71091 -3.8812786,247.88118 297.86027,248.31162 C 599.59445,248.74205 585.39013,613.31958 585.39013,613.31958 L 549.23368,602.98917 C 549.23368,602.98917 561.71626,267.68114 296.13853,270.69418 C 28.839071,273.70722 46.486864,621.92827 46.486864,621.92827 L 18.939091,604.71091 z "
         id="path3163" />
      <path
         id="path3165"
         d="M 18.939091,604.71091 C 18.939091,604.71091 -3.8812786,247.88118 297.86027,248.31162 C 599.59445,248.74205 585.39013,613.31958 585.39013,613.31958 L 549.23368,602.98917 C 549.23368,602.98917 578.93361,269.40288 296.13853,270.69418 C 11.621714,271.98548 41.321657,630.53695 41.321657,630.53695 L 18.939091,604.71091 z "
         style="fill:url(#radialGradient3186);fill-opacity:1;fill-rule:evenodd;stroke:#000000;stroke-width:1px;stroke-linecap:butt;stroke-linejoin:miter;stroke-opacity:1"
         sodipodi:nodetypes="czcczcc" />
      <path
         sodipodi:nodetypes="czcczcc"
         style="fill:url(#radialGradient3188);fill-opacity:1;fill-rule:evenodd;stroke:#000000;stroke-width:1px;stroke-linecap:butt;stroke-linejoin:miter;stroke-opacity:1"
         d="M 18.939091,604.71091 C 18.939091,604.71091 -3.8812786,247.88118 297.86027,248.31162 C 599.59445,248.74205 575.05972,615.04132 575.05972,615.04132 L 549.23368,640.86736 C 549.23368,640.86736 578.93361,269.40288 296.13853,270.69418 C 11.621714,271.98548 41.321657,630.53695 41.321657,630.53695 L 18.939091,604.71091 z "
         id="path3177" />
    </g>
    <g
       id="g3754"
       transform="matrix(0.8621263,0,0,0.9259991,-214.53643,254.02824)"
       inkscape:export-filename="C:\Users\Michael McCouman\Desktop\wDP.png"
       inkscape:export-xdpi="90"
       inkscape:export-ydpi="90">
      <path
         style="fill:#060202;fill-opacity:1;fill-rule:evenodd;stroke:#000000;stroke-width:1.11920404px;stroke-linecap:butt;stroke-linejoin:miter;stroke-opacity:1"
         d="M 913.20668,705.75385 C 913.20668,705.75385 1022.2222,692.49986 1028.6787,603.27525 C 1033.4406,537.46935 1037.8922,533.23985 1030.6247,498.31364 C 1017.0034,432.85247 913.08616,425.85439 913.08616,425.85439 C 913.08616,425.85439 907.31976,507.52797 913.77626,576.4317 C 920.23286,645.33554 913.20668,705.75385 913.20668,705.75385 z "
         id="path3470"
         sodipodi:nodetypes="csscsc" />
      <path
         sodipodi:nodetypes="csscsc"
         id="path3472"
         d="M 899.61979,698.80009 C 899.61979,698.80009 1016.991,700.06069 1026.5909,593.62017 C 1030.4142,551.22909 1038.2475,511.36845 1020.0943,480.3056 C 993.69146,435.12627 920.80764,435.76249 920.80764,435.76249 C 920.80764,435.76249 919.05485,504.40455 924.43935,573.15753 C 929.82395,641.91055 899.61979,698.80009 899.61979,698.80009 z "
         style="fill:url(#radialGradient3761);fill-opacity:1;fill-rule:evenodd;stroke:#000000;stroke-width:1.11920404px;stroke-linecap:butt;stroke-linejoin:miter;stroke-opacity:1;filter:url(#filter3700)" />
      <path
         transform="matrix(1,0,0,0.8828176,4.2842465,70.813446)"
         sodipodi:nodetypes="cccc"
         id="path3476"
         d="M 920.52141,695.70227 C 920.52141,695.70227 1016.5708,688.4617 1015.5363,555.61728 C 1027.6486,523.34977 984.49506,651.09282 932.7915,644.8269 C 927.34699,655.02751 920.52141,695.70227 920.52141,695.70227 z "
         style="opacity:1;fill:#00003f;fill-opacity:1;fill-rule:evenodd;stroke:none;stroke-width:1.00000012px;stroke-linecap:butt;stroke-linejoin:miter;stroke-opacity:1;filter:url(#filter3692)" />
      <path
         sodipodi:nodetypes="csss"
         id="path3468"
         d="M 866.54982,427.8382 C 884.1966,388.6743 949.17489,411.53882 953.42629,543.62711 C 958.63268,705.38625 897.56099,736.71085 882.83916,700.28268 C 858.06579,638.98267 848.90303,467.00209 866.54982,427.8382 z "
         style="fill:#000001;fill-opacity:1;fill-rule:evenodd;stroke:#000000;stroke-width:1.11920404px;stroke-linecap:butt;stroke-linejoin:miter;stroke-opacity:1" />
      <path
         sodipodi:nodetypes="csczc"
         id="path3704"
         d="M 953.35302,442.6063 C 953.35302,442.6063 975.12378,445.06507 997.15803,460.96208 C 1022.5317,479.26839 1012.6067,487.92212 1012.6067,487.92212 C 1012.6067,487.92212 1010.3673,491.06713 996.89433,470.67601 C 983.71517,450.72954 953.35302,442.6063 953.35302,442.6063 z "
         style="opacity:0.54901961;fill:url(#linearGradient3763);fill-opacity:1;fill-rule:evenodd;stroke:none;stroke-width:1px;stroke-linecap:butt;stroke-linejoin:miter;stroke-opacity:1;filter:url(#filter3750)" />
    </g>
    <path
       sodipodi:type="arc"
       style="opacity:0.54901961;fill:url(#linearGradient3777);fill-opacity:1;fill-rule:nonzero;stroke:none;stroke-opacity:1"
       id="path3769"
       sodipodi:cx="534.68018"
       sodipodi:cy="788.33167"
       sodipodi:rx="52.217735"
       sodipodi:ry="149.29858"
       d="M 586.89758,787.79789 A 52.217735,149.29858 0 1 1 586.89511,786.78636"
       sodipodi:start="6.2796101"
       sodipodi:end="12.55602"
       sodipodi:open="true"
       inkscape:export-filename="C:\Users\Michael McCouman\Desktop\wDP.png"
       inkscape:export-xdpi="90"
       inkscape:export-ydpi="90"
       transform="matrix(0.8621263,0,0,0.9259991,74.02622,46.898632)" />
    <path
       style="fill:#1f3241;fill-opacity:0.99115044;fill-rule:evenodd;stroke:#000000;stroke-width:1px;stroke-linecap:butt;stroke-linejoin:miter;stroke-opacity:1"
       d="M 194.78519,552.76948 L 508.2038,577.67624 C 547.29676,581.97495 562.56392,591.15525 561.81996,650.8132 L 554.63652,915.617 C 555.836,965.29391 552.97543,982.48408 501.13115,981.3323 L 191.65011,991.51029 C 158.72305,990.99686 132.19516,969.45996 131.35331,931.2407 L 127.88841,614.555 C 127.32497,588.41916 153.84036,551.0496 194.78519,552.76948 z "
       id="path3767"
       sodipodi:nodetypes="ccccccccc"
       inkscape:export-filename="C:\Users\Michael McCouman\Desktop\wDP.png"
       inkscape:export-xdpi="90"
       inkscape:export-ydpi="90" />
    <path
       sodipodi:nodetypes="ccccccccc"
       id="path3779"
       d="M 215.93567,560.12297 L 509.28523,580.36254 C 546.12561,584.57479 562.52248,597.73669 561.82139,656.19474 L 555.05187,915.67257 C 556.18223,964.35032 553.48649,981.19475 504.62956,980.06614 L 212.98124,990.03942 C 181.95148,989.53631 156.95217,968.43259 156.15883,930.98203 L 152.89358,620.6658 C 152.36261,595.05563 177.35014,558.43769 215.93567,560.12297 z "
       style="fill:url(#linearGradient2769);fill-opacity:1;fill-rule:evenodd;stroke:#000000;stroke-width:0.99999994px;stroke-linecap:butt;stroke-linejoin:miter;stroke-opacity:1"
       inkscape:export-filename="C:\Users\Michael McCouman\Desktop\wDP.png"
       inkscape:export-xdpi="90"
       inkscape:export-ydpi="90" />
    <path
       style="fill:#ffffff;fill-opacity:0.99115044;fill-rule:evenodd;stroke:#000000;stroke-width:0.99999994px;stroke-linecap:butt;stroke-linejoin:miter;stroke-opacity:1"
       d="M 233.79837,680.04498 L 285.22096,681.78098 C 285.22096,681.78098 282.59519,749.18505 282.56515,789.84076 C 282.5517,808.05183 275.04655,838.98534 307.68543,841.4594 C 338.70495,843.81071 343.85666,819.50581 344.88117,791.37384 C 346.82283,738.0581 348.44756,688.92663 348.44756,688.92663 L 398.17742,690.94977 C 398.17742,690.94977 393.03082,746.4469 392.50615,791.23277 C 392.08071,827.54859 393.44705,844.59393 419.30431,846.29704 C 446.39218,848.08121 447.21882,824.13661 448.67531,792.31809 C 450.85738,744.64848 452.7391,693.68728 452.7391,693.68728 L 503.32465,696.90386 C 503.32465,696.90386 500.98143,766.10786 497.41025,833.85363 C 495.46361,870.78173 460.6206,888.3078 428.20393,888.98848 C 387.32665,889.84682 366.14695,863.56632 366.14695,863.56632 C 366.14695,863.56632 347.44944,891.166 303.18317,889.67975 C 282.37486,888.98111 234.61246,877.20025 233.7426,824.89621 C 232.80206,768.34261 233.79837,680.04498 233.79837,680.04498 z "
       id="path3781"
       sodipodi:nodetypes="ccsssccsssccsscssc"
       inkscape:export-filename="C:\Users\Michael McCouman\Desktop\wDP.png"
       inkscape:export-xdpi="90"
       inkscape:export-ydpi="90" />
    <path
       style="fill:#020204;fill-opacity:0.99115044;fill-rule:evenodd;stroke:#000000;stroke-width:1px;stroke-linecap:butt;stroke-linejoin:miter;stroke-opacity:1"
       d="M 378.09778,600.36582 L 373.94547,689.72729 L 501.68394,694.86949 L 505.36106,611.34034 L 378.09778,600.36582 z "
       id="path3783"
       sodipodi:nodetypes="ccccc"
       inkscape:export-filename="C:\Users\Michael McCouman\Desktop\wDP.png"
       inkscape:export-xdpi="90"
       inkscape:export-ydpi="90" />
    <path
       sodipodi:nodetypes="ccccc"
       id="path3785"
       d="M 376.72441,627.02914 L 375.55917,661.36758 L 502.27041,670.38616 L 504.33913,637.37722 L 376.72441,627.02914 z "
       style="fill:#bd0204;fill-opacity:0.99115044;fill-rule:evenodd;stroke:#000000;stroke-width:1px;stroke-linecap:butt;stroke-linejoin:miter;stroke-opacity:1"
       inkscape:export-filename="C:\Users\Michael McCouman\Desktop\wDP.png"
       inkscape:export-xdpi="90"
       inkscape:export-ydpi="90" />
    <path
       style="fill:#bda304;fill-opacity:0.99115044;fill-rule:evenodd;stroke:#000000;stroke-width:1px;stroke-linecap:butt;stroke-linejoin:miter;stroke-opacity:1"
       d="M 375.58464,658.96421 L 373.18596,689.57203 L 502.34103,696.52759 L 503.2428,668.0961 L 375.58464,658.96421 z "
       id="path3787"
       sodipodi:nodetypes="ccccc"
       inkscape:export-filename="C:\Users\Michael McCouman\Desktop\wDP.png"
       inkscape:export-xdpi="90"
       inkscape:export-ydpi="90" />
    <flowRoot
       xml:space="preserve"
       id="flowRoot3797"
       transform="matrix(3.8730635,3.3600425e-2,-4.8401471e-2,5.1422512,1075.1899,-3782.0033)"
       style="fill:#ffffff"
       inkscape:export-filename="C:\Users\Michael McCouman\Desktop\wDP.png"
       inkscape:export-xdpi="90"
       inkscape:export-ydpi="90"><flowRegion
         id="flowRegion3799"><rect
           id="rect3801"
           width="211.00064"
           height="92.312775"
           x="-180.85768"
           y="912.95105"
           style="fill:#ffffff" /></flowRegion><flowPara
         id="flowPara3803">d</flowPara></flowRoot>    <flowRoot
       style="fill:#ffffff"
       transform="matrix(4.6564804,1.9770515e-2,-4.1517526e-2,7.0372015,1154.71,-5532.1957)"
       id="flowRoot3805"
       xml:space="preserve"
       inkscape:export-filename="C:\Users\Michael McCouman\Desktop\wDP.png"
       inkscape:export-xdpi="90"
       inkscape:export-ydpi="90"><flowRegion
         id="flowRegion3807"><rect
           style="fill:#ffffff"
           y="912.95105"
           x="-180.85768"
           height="92.312775"
           width="211.00064"
           id="rect3809" /></flowRegion><flowPara
         id="flowPara3811">P</flowPara></flowRoot>    <flowRoot
       xml:space="preserve"
       id="flowRoot3817"
       transform="matrix(3.9913395,1.9884107e-2,-8.398082e-3,5.2871406,1034.5121,-3916.6306)"
       style="fill:#ffffff"
       inkscape:export-filename="C:\Users\Michael McCouman\Desktop\wDP.png"
       inkscape:export-xdpi="90"
       inkscape:export-ydpi="90"><flowRegion
         id="flowRegion3819"><rect
           id="rect3821"
           width="211.00064"
           height="92.312775"
           x="-180.85768"
           y="912.95105"
           style="fill:#ffffff" /></flowRegion><flowPara
         id="flowPara3823">o</flowPara></flowRoot>    <flowRoot
       style="fill:#ffffff"
       transform="matrix(3.4897368,3.0444065e-2,-4.3611057e-2,4.6591979,1024.7267,-3337.7005)"
       id="flowRoot3825"
       xml:space="preserve"
       inkscape:export-filename="C:\Users\Michael McCouman\Desktop\wDP.png"
       inkscape:export-xdpi="90"
       inkscape:export-ydpi="90"><flowRegion
         id="flowRegion3827"><rect
           style="fill:#ffffff"
           y="912.95105"
           x="-180.85768"
           height="92.312775"
           width="211.00064"
           id="rect3829" /></flowRegion><flowPara
         id="flowPara3831">c</flowPara></flowRoot>    <flowRoot
       xml:space="preserve"
       id="flowRoot3833"
       transform="matrix(3.4897368,3.0444065e-2,-4.3611057e-2,4.6591979,1046.1953,-3337.4102)"
       style="fill:#ffffff"
       inkscape:export-filename="C:\Users\Michael McCouman\Desktop\wDP.png"
       inkscape:export-xdpi="90"
       inkscape:export-ydpi="90"><flowRegion
         id="flowRegion3835"><rect
           id="rect3837"
           width="211.00064"
           height="92.312775"
           x="-180.85768"
           y="912.95105"
           style="fill:#ffffff" /></flowRegion><flowPara
         id="flowPara3839">a</flowPara></flowRoot>    <flowRoot
       style="fill:#ffffff"
       transform="matrix(3.4897368,2.8803281e-2,-4.3611057e-2,4.4080901,1067.664,-3107.1207)"
       id="flowRoot3841"
       xml:space="preserve"
       inkscape:export-filename="C:\Users\Michael McCouman\Desktop\wDP.png"
       inkscape:export-xdpi="90"
       inkscape:export-ydpi="90"><flowRegion
         id="flowRegion3843"><rect
           style="fill:#ffffff"
           y="912.95105"
           x="-180.85768"
           height="92.312775"
           width="211.00064"
           id="rect3845" /></flowRegion><flowPara
         id="flowPara3847">s</flowPara></flowRoot>    <flowRoot
       xml:space="preserve"
       id="flowRoot3849"
       transform="matrix(3.7716151,2.9620273e-2,-4.7133675e-2,4.5331237,1142.2343,-3222.2996)"
       style="fill:#ffffff"
       inkscape:export-filename="C:\Users\Michael McCouman\Desktop\wDP.png"
       inkscape:export-xdpi="90"
       inkscape:export-ydpi="90"><flowRegion
         id="flowRegion3851"><rect
           id="rect3853"
           width="211.00064"
           height="92.312775"
           x="-180.85768"
           y="912.95105"
           style="fill:#ffffff" /></flowRegion><flowPara
         id="flowPara3855">t</flowPara></flowRoot>    <flowRoot
       style="fill:#ffffff"
       transform="matrix(3.1231876,2.7540633e-2,-3.903031e-2,4.2148529,1029.461,-2930.4397)"
       id="flowRoot3857"
       xml:space="preserve"
       inkscape:export-filename="C:\Users\Michael McCouman\Desktop\wDP.png"
       inkscape:export-xdpi="90"
       inkscape:export-ydpi="90"><flowRegion
         id="flowRegion3859"><rect
           style="fill:#ffffff"
           y="912.95105"
           x="-180.85768"
           height="92.312775"
           width="211.00064"
           id="rect3861" /></flowRegion><flowPara
         id="flowPara3863">e</flowPara></flowRoot>    <flowRoot
       xml:space="preserve"
       id="flowRoot3865"
       transform="matrix(3.3591093,2.7642478e-2,-4.1978612e-2,4.2304395,1095.2243,-2944.2725)"
       style="fill:#ffffff"
       inkscape:export-filename="C:\Users\Michael McCouman\Desktop\wDP.png"
       inkscape:export-xdpi="90"
       inkscape:export-ydpi="90"><flowRegion
         id="flowRegion3867"><rect
           id="rect3869"
           width="211.00064"
           height="92.312775"
           x="-180.85768"
           y="912.95105"
           style="fill:#ffffff" /></flowRegion><flowPara
         id="flowPara3871">r</flowPara></flowRoot>    <path
       sodipodi:type="arc"
       style="opacity:0.11764706;fill:url(#linearGradient3943);fill-opacity:1;fill-rule:nonzero;stroke:none;stroke-opacity:1;filter:url(#filter4157)"
       id="path3935"
       sodipodi:cx="60.207966"
       sodipodi:cy="1082.4662"
       sodipodi:rx="106.24935"
       sodipodi:ry="47.812206"
       d="M 166.45664,1082.2952 A 106.24935,47.812206 0 1 1 166.45163,1081.9713"
       sodipodi:start="6.2796101"
       sodipodi:end="12.55602"
       sodipodi:open="true"
       transform="matrix(0.8288558,0,0,1,52.328244,-131.04087)"
       inkscape:export-filename="C:\Users\Michael McCouman\Desktop\wDP.png"
       inkscape:export-xdpi="90"
       inkscape:export-ydpi="90" />
    <path
       transform="matrix(0.8288558,0,0,1,570.35988,-173.54061)"
       sodipodi:open="true"
       sodipodi:end="12.55602"
       sodipodi:start="6.2796101"
       d="M 166.45664,1082.2952 A 106.24935,47.812206 0 1 1 166.45163,1081.9713"
       sodipodi:ry="47.812206"
       sodipodi:rx="106.24935"
       sodipodi:cy="1082.4662"
       sodipodi:cx="60.207966"
       id="path3945"
       style="opacity:0.2627451;fill:url(#linearGradient3947);fill-opacity:1;fill-rule:nonzero;stroke:none;stroke-opacity:1;filter:url(#filter4073)"
       sodipodi:type="arc"
       inkscape:export-filename="C:\Users\Michael McCouman\Desktop\wDP.png"
       inkscape:export-xdpi="90"
       inkscape:export-ydpi="90" />
    <path
       sodipodi:type="arc"
       style="opacity:0.11764706;fill:url(#linearGradient4369);fill-opacity:1;fill-rule:nonzero;stroke:none;stroke-opacity:1;filter:url(#filter4359)"
       id="path4161"
       sodipodi:cx="324.06052"
       sodipodi:cy="1117.8826"
       sodipodi:rx="295.72736"
       sodipodi:ry="58.437141"
       d="M 619.78598,1117.6736 A 295.72736,58.437141 0 1 1 619.77203,1117.2777"
       sodipodi:start="6.2796101"
       sodipodi:end="12.55602"
       sodipodi:open="true"
       transform="matrix(1.0149253,0,0,1,85.686665,-131.04087)"
       inkscape:export-filename="C:\Users\Michael McCouman\Desktop\wDP.png"
       inkscape:export-xdpi="90"
       inkscape:export-ydpi="90" />
    <path
       style="fill:#060202;fill-opacity:1;fill-rule:evenodd;stroke:#000000;stroke-width:1px;stroke-linecap:butt;stroke-linejoin:miter;stroke-opacity:1"
       d="M 72.3129,639.14562 C 72.3129,639.14562 -34.86515,650.3369 -41.32166,720.06719 C -47.77817,789.79749 -46.05643,808.73658 -25.82603,876.74514 C -5.5956402,944.7537 98.138923,931.84068 98.138923,931.84068 C 98.138923,931.84068 103.90526,845.10585 97.448753,771.93209 C 90.992246,698.75832 72.3129,639.14562 72.3129,639.14562 z "
       id="path3190"
       sodipodi:nodetypes="csscsc"
       inkscape:export-filename="C:\Users\Michael McCouman\Desktop\wDP.png"
       inkscape:export-xdpi="90"
       inkscape:export-ydpi="90" />
    <path
       style="fill:#040103;fill-opacity:0.99557525;fill-rule:evenodd;stroke:#000000;stroke-width:1px;stroke-linecap:butt;stroke-linejoin:miter;stroke-opacity:1"
       d="M 58.799166,623.21977 C 58.799166,623.21977 76.399148,607.44781 114.8567,607.52481 C 161.42291,607.62354 163.22204,674.92268 163.45718,816.09538 C 163.60911,907.31149 141.19091,951.4109 120.12633,948.13565 C 91.50105,943.68482 90.145471,929.62951 90.145471,929.62951 L 58.799166,623.21977 z "
       id="path3352"
       sodipodi:nodetypes="cssscc"
       inkscape:export-filename="C:\Users\Michael McCouman\Desktop\wDP.png"
       inkscape:export-xdpi="90"
       inkscape:export-ydpi="90" />
    <path
       style="fill:url(#linearGradient2778);fill-opacity:1;fill-rule:evenodd;stroke:#000000;stroke-width:1px;stroke-linecap:butt;stroke-linejoin:miter;stroke-opacity:1"
       d="M 62.901308,633.45118 L 69.640728,655.91593 C 69.640728,655.91593 85.927668,672.76449 92.105478,741.28198 C 98.283288,809.79947 94.351958,929.98589 94.351958,929.98589 C 101.06822,952.75532 129.53868,971.18446 119.06318,801.93682 C 104.80749,568.73197 62.901308,633.45118 62.901308,633.45118 z "
       id="path3342"
       sodipodi:nodetypes="ccsccc"
       inkscape:export-filename="C:\Users\Michael McCouman\Desktop\wDP.png"
       inkscape:export-xdpi="90"
       inkscape:export-ydpi="90" />
    <path
       sodipodi:nodetypes="csscsc"
       id="path3192"
       d="M 59.776937,651.19784 C 59.776937,651.19784 -29.606247,661.713 -34.990777,727.23058 C -40.375306,792.74817 -38.939429,810.54307 -22.067899,874.44293 C -5.1963795,938.3428 81.315042,926.20991 81.315042,926.20991 C 81.315042,926.20991 86.123987,844.7151 80.739461,775.96209 C 75.354935,707.20907 59.776937,651.19784 59.776937,651.19784 z "
       style="fill:#0d1d61;fill-opacity:1;fill-rule:evenodd;stroke:#000000;stroke-width:1px;stroke-linecap:butt;stroke-linejoin:miter;stroke-opacity:1"
       inkscape:export-filename="C:\Users\Michael McCouman\Desktop\wDP.png"
       inkscape:export-xdpi="90"
       inkscape:export-ydpi="90" />
    <path
       style="fill:url(#radialGradient3202);fill-opacity:1;fill-rule:evenodd;stroke:#000000;stroke-width:1.07955384px;stroke-linecap:butt;stroke-linejoin:miter;stroke-opacity:1;filter:url(#filter3256)"
       d="M 59.776937,651.1978 C 59.776937,651.1978 -29.606247,661.79857 -34.990777,727.84956 C -40.375306,793.90055 -38.939429,811.84032 -22.067899,876.26042 C -5.1963795,940.68052 81.315042,928.44886 81.315042,928.44886 C 81.315042,928.44886 86.123987,846.29057 80.739461,776.97781 C 75.354935,707.66504 59.776937,651.1978 59.776937,651.1978 z "
       id="path3194"
       sodipodi:nodetypes="csscsc"
       transform="matrix(0.9004575,0,0,0.9529019,8.2910477,30.670158)"
       inkscape:export-filename="C:\Users\Michael McCouman\Desktop\wDP.png"
       inkscape:export-xdpi="90"
       inkscape:export-ydpi="90" />
    <path
       sodipodi:nodetypes="cccc"
       id="path3260"
       d="M 49.535725,655.83326 C 49.535725,655.83326 -51.597318,663.53288 -36.193508,786.66905 C -35.721403,829.79744 -32.321143,679.63923 58.346055,680.91751 C 60.384461,666.55521 49.535725,655.83326 49.535725,655.83326 z "
       style="opacity:0.32941176;fill:#fcfafd;fill-opacity:0.97787613;fill-rule:evenodd;stroke:#000000;stroke-width:1.00000012px;stroke-linecap:butt;stroke-linejoin:miter;stroke-opacity:1;filter:url(#filter3338)"
       inkscape:export-filename="C:\Users\Michael McCouman\Desktop\wDP.png"
       inkscape:export-xdpi="90"
       inkscape:export-ydpi="90" />
    <path
       style="fill:url(#linearGradient2772);fill-opacity:1;fill-rule:evenodd;stroke:none;stroke-width:1px;stroke-linecap:butt;stroke-linejoin:miter;stroke-opacity:1;filter:url(#filter3464)"
       d="M 61.47758,633.40794 C 47.309695,633.10367 62.314287,645.64155 62.314287,645.64155 L 79.593629,723.29384 L 93.207862,933.1977 L 100.28694,935.5574 C 100.28694,935.5574 108.87222,805.91448 99.433447,729.51943 C 89.994681,653.12438 73.48206,633.66575 61.47758,633.40794 z "
       id="path3354"
       sodipodi:nodetypes="cccccss"
       inkscape:export-filename="C:\Users\Michael McCouman\Desktop\wDP.png"
       inkscape:export-xdpi="90"
       inkscape:export-ydpi="90" />
  </g>
</svg>
